<svg xmlns="http://www.w3.org/2000/svg" width="50" height="50" fill="#fff" xmlns:v="https://vecta.io/nano"><path d="M22.07 25h1.465v-1.465c0-.808-.657-1.465-1.465-1.465s-1.465.657-1.465 1.465S21.262 25 22.07 25zm1.465 2.93H19.14c-.808 0-1.465.657-1.465 1.465v1.465h5.859v-2.93zm5.86-4.395c0-.808-.657-1.465-1.465-1.465s-1.465.657-1.465 1.465V25h1.465c.808 0 1.465-.657 1.465-1.465zm-5.86 10.254h-2.93v5.859h8.789v-5.859h-2.93v1.465c0 .809-.655 1.465-1.465 1.465s-1.465-.655-1.465-1.465v-1.465zM0 44.043a4.4 4.4 0 0 0 4.395 4.395h41.211A4.4 4.4 0 0 0 50 44.043V16.211H0v27.832zm14.746-14.648c0-2.026 1.385-3.719 3.252-4.225a4.36 4.36 0 0 1-.323-1.634 4.4 4.4 0 0 1 4.395-4.395c1.13 0 2.15.44 2.93 1.143.779-.703 1.8-1.143 2.93-1.143a4.4 4.4 0 0 1 4.394 4.395 4.36 4.36 0 0 1-.323 1.634c1.868.507 3.252 2.2 3.252 4.225v2.93c0 .809-.655 1.465-1.465 1.465h-1.465v7.324c0 .809-.655 1.465-1.465 1.465H19.141c-.809 0-1.465-.655-1.465-1.465V33.79h-1.465c-.809 0-1.465-.655-1.465-1.465v-2.93zm17.578 0c0-.808-.657-1.465-1.465-1.465h-4.395v2.93h5.859v-1.465zM45.606 1.563H4.395A4.4 4.4 0 0 0 0 5.957v7.324h50V5.957a4.4 4.4 0 0 0-4.395-4.395zM7.322 10.352c-.809 0-1.465-.656-1.465-1.465s.656-1.465 1.465-1.465 1.465.656 1.465 1.465-.656 1.465-1.465 1.465zm5.957 0c-.809 0-1.465-.656-1.465-1.465s.656-1.465 1.465-1.465 1.465.656 1.465 1.465-.656 1.465-1.465 1.465zm5.859 0c-.809 0-1.465-.656-1.465-1.465s.656-1.465 1.465-1.465 1.465.656 1.465 1.465-.656 1.465-1.465 1.465zm23.538 0h-8.887c-.809 0-1.465-.655-1.465-1.465s.655-1.465 1.465-1.465h8.887c.809 0 1.465.655 1.465 1.465s-.655 1.465-1.465 1.465z"/></svg>