<svg xmlns="http://www.w3.org/2000/svg" width="50" height="50" fill="none" xmlns:v="https://vecta.io/nano"><g clip-path="url(#A)" fill="#fff"><path d="M15.375 22.276c2.29 5.053 7.192 7.252 9.625 7.252 1.6 0 4.267-.952 6.557-3.039a38.72 38.72 0 0 1-2.689.088 44.71 44.71 0 0 1-.711-.006 2.79 2.79 0 0 1-1.699.581H24.42a2.79 2.79 0 0 1-2.785-2.785 2.79 2.79 0 0 1 2.785-2.785h2.038c.736 0 1.425.287 1.935.782l.501.003c2.631 0 4.364-.241 5.498-.532a3.04 3.04 0 0 1-.227-1.158v-7.061a3.04 3.04 0 0 1 .744-1.983c-.252-1.958-.708-3.453-1.39-4.556-1.404-2.273-4.111-3.331-8.52-3.331-3.657 0-6.183.759-7.72 2.321-1.192 1.211-1.883 2.938-2.206 5.547a3.03 3.03 0 0 1 .761 2.002v7.061a3.01 3.01 0 0 1-.46 1.601zm-5.01.066h2.444a1.67 1.67 0 0 0 1.667-1.667v-7.061c0-.615-.334-1.151-.83-1.44.546-5.782 2.777-9.789 11.354-9.789 4.925 0 8 1.263 9.676 3.976.975 1.578 1.444 3.617 1.663 5.822-.488.291-.815.822-.815 1.431v7.061c0 .794.555 1.457 1.298 1.625-1.078.705-3.309 1.425-7.928 1.425a49.07 49.07 0 0 1-1.17-.014c-.238-.457-.715-.77-1.266-.77H24.42c-.788 0-1.427.639-1.427 1.426a1.43 1.43 0 0 0 1.427 1.427h2.038c.476 0 .897-.234 1.156-.592l1.255.018c5.207 0 8.517-.889 9.858-2.652.057-.075.109-.15.156-.224h.753a1.67 1.67 0 0 0 1.667-1.667v-7.061a1.67 1.67 0 0 0-1.667-1.667h-.919c-.259-2.664-.832-4.932-2.012-6.84C34.582 1.67 30.753 0 25 0s-9.582 1.67-11.705 5.107c-1.179 1.908-1.753 4.176-2.011 6.84h-.919c-.921 0-1.667.746-1.667 1.667v7.061a1.67 1.67 0 0 0 1.667 1.667zm34.789 20.765c-.554-3.446-1.695-7.885-3.984-9.463-1.561-1.076-7.008-3.987-9.335-5.23l-.049-.026a.76.76 0 0 0-.828.072c-1.22.958-2.556 1.603-3.971 1.918a.76.76 0 0 0-.546.473L25 34.65l-1.441-3.799a.76.76 0 0 0-.546-.473c-1.414-.315-2.751-.96-3.971-1.918a.76.76 0 0 0-.828-.072c-2.3 1.229-7.819 4.201-9.377 5.251-2.635 1.776-3.786 8.198-3.99 9.467a.76.76 0 0 0 .034.375C4.974 43.748 7.392 50 25 50s20.025-6.253 20.12-6.519a.76.76 0 0 0 .034-.375zm-8.199-3.957h-6.974v-1.47h6.974v1.469z"/></g><defs><clipPath id="A"><path fill="#fff" d="M0 0h50v50H0z"/></clipPath></defs></svg>