<svg xmlns="http://www.w3.org/2000/svg" width="50" height="50" fill="none" xmlns:v="https://vecta.io/nano"><g clip-path="url(#A)" fill="#fff"><path d="M48.535 0h-5.957c-.81 0-1.465.655-1.465 1.465V2.93H29.125C28.518 1.228 26.907 0 25 0s-3.518 1.228-4.125 2.93H8.887V1.465C8.887.655 8.232 0 7.422 0H1.465C.655 0 0 .655 0 1.465v5.859c0 .81.655 1.465 1.465 1.465h5.957c.81 0 1.465-.655 1.465-1.465V5.84h6.016c-5.084 3.176-8.436 8.754-8.836 15.001-1.758.575-3.039 2.211-3.039 4.159a4.4 4.4 0 0 0 4.395 4.395A4.4 4.4 0 0 0 11.816 25c0-1.869-1.178-3.458-2.826-4.093.5-6.965 5.36-12.836 12.12-14.511.731 1.414 2.191 2.393 3.889 2.393s3.158-.979 3.889-2.393c6.76 1.675 11.621 7.546 12.12 14.511-1.648.634-2.826 2.224-2.826 4.093a4.4 4.4 0 0 0 4.395 4.395A4.4 4.4 0 0 0 46.973 25c0-1.947-1.281-3.583-3.039-4.159-.401-6.248-3.753-11.806-8.836-14.982h6.016v1.465c0 .81.655 1.465 1.465 1.465h5.957c.81 0 1.465-.655 1.465-1.465V1.465C50 .655 49.345 0 48.535 0zM34.966 48.183c-.766-2.345-2.974-4.14-5.571-4.14h-8.789c-2.598 0-4.805 1.796-5.571 4.14-.295.904.474 1.817 1.425 1.817h17.082c.951 0 1.72-.913 1.425-1.817zm2.972-18.136L26.465 12.838v13.897c1.701.607 2.93 2.217 2.93 4.125A4.4 4.4 0 0 1 25 35.254a4.4 4.4 0 0 1-4.395-4.394c0-1.907 1.228-3.518 2.93-4.125V12.838L12.063 30.047c-.388.581-.31 1.355.183 1.848 2.689 2.689 4.408 6.153 5.072 9.87a8.72 8.72 0 0 1 3.288-.651h8.789c1.164 0 2.271.239 3.288.651.663-3.716 2.382-7.18 5.072-9.869.494-.493.571-1.267.183-1.848zM25 29.395c-.808 0-1.465.657-1.465 1.465s.657 1.465 1.465 1.465 1.465-.657 1.465-1.465-.657-1.465-1.465-1.465z"/></g><defs><clipPath id="A"><path fill="#fff" d="M0 0h50v50H0z"/></clipPath></defs></svg>